<svg width="96" height="96" viewBox="0 0 96 96" fill="none" xmlns="http://www.w3.org/2000/svg" xmlns:xlink="http://www.w3.org/1999/xlink">
  <defs>
    <linearGradient id="b">
      <stop offset="0" stop-color="#3771c8"/>
      <stop stop-color="#3771c8" offset=".128"/>
      <stop offset="1" stop-color="#60f" stop-opacity="0"/>
    </linearGradient>
    <linearGradient id="a">
      <stop offset="0" stop-color="#fd5"/>
      <stop offset=".1" stop-color="#fd5"/>
      <stop offset=".5" stop-color="#ff543e"/>
      <stop offset="1" stop-color="#c837ab"/>
    </linearGradient>
    <radialGradient id="c" cx="114.7" cy="420.3" r="47.2" xlink:href="#a" gradientUnits="userSpaceOnUse" gradientTransform="matrix(0 -1.44 1.34 0 -515.1 330.3)" fx="114.7" fy="420.3"/>
    <radialGradient id="d" cx="107.2" cy="343.8" r="47.2" xlink:href="#b" gradientUnits="userSpaceOnUse" gradientTransform="matrix(.126 .63 -2.6 .52 1197.8 -333.4)" fx="107.2" fy="343.8"/>
  </defs>
  <path fill="url(#c)" d="M47.3 0C27.5 0 21.8.02 20.7.11c-4 .34-6.6.97-9.3 2.34-2.1 1.05-3.8 2.27-5.4 3.97C3.6 9.55 1.1 13.4.43 17.9c-.32 2.21-.41 2.66-.43 13.95-.01 3.76 0 8.72 0 15.36 0 19.7.02 25.5.12 26.6.33 3.94.95 6.42 2.26 9.13 2.5 5.19 7.28 9.08 12.9 10.54 1.95.5 4.1.78 6.86.91 1.17.05 13.1.09 25.04.09 11.94 0 23.88-.01 25.01-.07 3.2-.15 5.06-.4 7.11-.93 5.66-1.46 10.36-5.3 12.9-10.56 1.28-2.65 1.93-5.22 2.23-8.96.06-.81.09-13.8.09-26.76 0-12.96-.03-25.93-.09-26.74-.3-3.8-.95-6.35-2.27-9.04-1.09-2.21-2.29-3.86-4.04-5.54C84.9 2.9 81.1 1.09 76.6.43 74.4.11 74 .02 62.6 0H47.3z" transform="translate(.73 .73)"/>
  <path fill="url(#d)" d="M47.3 0C27.5 0 21.8.02 20.7.11c-4 .34-6.6.97-9.3 2.34-2.1 1.05-3.8 2.27-5.4 3.97C3.6 9.55 1.1 13.4.43 17.9c-.32 2.21-.41 2.66-.43 13.95-.01 3.76 0 8.72 0 15.36 0 19.7.02 25.5.12 26.6.33 3.94.95 6.42 2.26 9.13 2.5 5.19 7.28 9.08 12.9 10.54 1.95.5 4.1.78 6.86.91 1.17.05 13.1.09 25.04.09 11.94 0 23.88-.01 25.01-.07 3.2-.15 5.06-.4 7.11-.93 5.66-1.46 10.36-5.3 12.9-10.56 1.28-2.65 1.93-5.22 2.23-8.96.06-.81.09-13.8.09-26.76 0-12.96-.03-25.93-.09-26.74-.3-3.8-.95-6.35-2.27-9.04-1.09-2.21-2.29-3.86-4.04-5.54C84.9 2.9 81.1 1.09 76.6.43 74.4.11 74 .02 62.6 0H47.3z" transform="translate(.73 .73)"/>
  <path fill="#fff" d="M48 13.1c-9.5 0-10.7.04-14.4.21-3.7.17-6.2.76-8.5 1.62-2.3.89-4.2 2.08-6.2 4.08s-3.2 3.9-4.1 6.2c-.86 2.3-1.45 4.8-1.62 8.5-.17 3.7-.21 4.9-.21 14.4s.04 10.7.21 14.4c.17 3.7.76 6.2 1.62 8.5.89 2.3 2.08 4.2 4.08 6.2s3.9 3.2 6.2 4.1c2.3.86 4.8 1.45 8.5 1.62 3.7.17 4.9.21 14.4.21s10.7-.04 14.4-.21c3.7-.17 6.2-.76 8.5-1.62 2.3-.89 4.2-2.08 6.2-4.08s3.2-3.9 4.1-6.2c.86-2.3 1.45-4.8 1.62-8.5.17-3.7.21-4.9.21-14.4s-.04-10.7-.21-14.4c-.17-3.7-.76-6.2-1.62-8.5-.89-2.3-2.08-4.2-4.08-6.2s-3.9-3.2-6.2-4.1c-2.3-.86-4.8-1.45-8.5-1.62-3.7-.17-4.9-.21-14.4-.21zm-3.1 6.3c.93 0 1.97 0 3.1 0 9.3 0 10.4.03 14.1.2 3.4.16 5.2.72 6.5 1.2 1.6.63 2.8 1.39 4 2.6s1.97 2.4 2.6 4c.48 1.3 1.04 3.1 1.2 6.5.17 3.7.2 4.8.2 14.1s-.03 10.4-.2 14.1c-.16 3.4-.72 5.2-1.2 6.5-.63 1.6-1.39 2.8-2.6 4s-2.4 1.97-4 2.6c-1.3.48-3.1 1.04-6.5 1.2-3.7.17-4.8.2-14.1.2s-10.4-.03-14.1-.2c-3.4-.16-5.2-.72-6.5-1.2-1.6-.63-2.8-1.39-4-2.6s-1.97-2.4-2.6-4c-.48-1.3-1.04-3.1-1.2-6.5-.17-3.7-.2-4.8-.2-14.1s.03-10.4.2-14.1c.16-3.4.72-5.2 1.2-6.5.63-1.6 1.39-2.8 2.6-4s2.4-1.97 4-2.6c1.3-.48 3.1-1.04 6.5-1.2 3.2-.15 4.5-.19 11-.2zm21.8 5.8c-2.3 0-4.2 1.87-4.2 4.18s1.87 4.18 4.2 4.18 4.2-1.87 4.2-4.18-1.87-4.18-4.2-4.18zm-18.7 4.9c-9.9 0-17.9 8.02-17.9 17.9s8.02 17.9 17.9 17.9 17.9-8.02 17.9-17.9-8.02-17.9-17.9-17.9zm0 6.3c6.4 0 11.6 5.18 11.6 11.6s-5.18 11.6-11.6 11.6-11.6-5.18-11.6-11.6 5.18-11.6 11.6-11.6z"/>
</svg>
